<?xml version="1.0" encoding="iso-8859-1"?>
<!-- Generator: Adobe Illustrator 17.0.0, SVG Export Plug-In . SVG Version: 6.00 Build 0)  -->
<!DOCTYPE svg PUBLIC "-//W3C//DTD SVG 1.1//EN" "http://www.w3.org/Graphics/SVG/1.1/DTD/svg11.dtd">
<svg version="1.1" id="&#x421;&#x43B;&#x43E;&#x439;_1"
	 xmlns="http://www.w3.org/2000/svg" xmlns:xlink="http://www.w3.org/1999/xlink" x="0px" y="0px" width="768px" height="156px"
	 viewBox="0 0 768 156" style="enable-background:new 0 0 768 156;" xml:space="preserve">
	<g id="XMLID_20_">
		<g id="XMLID_14_">
			<path id="XMLID_11_" style="fill:#F4C948;" d="M290.699,108.995c-5.894,2.421-11.614,1.307-16.236-3.525
				c-4.416-4.616-9.065-9.009-13.573-13.538c-2.9-2.913-5.709-5.917-8.599-8.84c-1.284-1.299-2.659-2.509-4.011-3.739
				c-0.768-0.698-0.766-1.231,0.022-2.006c4.428-4.357,8.793-8.778,13.19-13.167c1.308-1.306,2.651-2.577,4.004-3.89
				c2.046,1.996,4.074,3.951,6.075,5.934c3.588,3.555,7.163,7.123,10.737,10.691c4.634,4.626,9.271,9.25,13.89,13.891
				c1.939,1.948,3.814,3.959,5.76,5.9c0.787,0.785,0.809,1.379-0.041,2.147c-1.924,1.738-3.784,3.547-5.669,5.328
				C296.179,104.249,291.692,108.587,290.699,108.995z M285.42,82.978c-0.386-0.558-0.562-0.904-0.82-1.17
				c-1.343-1.383-2.692-2.761-4.066-4.113c-2.158-2.124-2.204-2.08-4.308,0.22c-0.715,0.781-0.554,1.376,0.063,1.983
				c1.64,1.611,3.284,3.218,4.986,4.763c0.438,0.398,1.358,0.934,1.601,0.762C283.815,84.757,284.571,83.831,285.42,82.978z"/>
			<path id="XMLID_8_" style="fill:#F4C948;" d="M305.977,95.23c-2.244-2.202-4.292-4.179-6.303-6.192
				c-3.956-3.958-7.88-7.95-11.841-11.903c-5.458-5.446-10.922-10.886-16.415-16.296c-2.971-2.926-3.055-3.55-0.142-6.397
				c1.391-1.359,2.827-2.453,4.172-3.877c1.187-1.255,2.419-2.231,3.899-2.92c4.657-2.168,10.174-1.658,13.929,1.862
				c5.678,5.322,11.007,11.015,16.518,16.516c3.623,3.617,7.297,7.183,10.967,10.752c1.293,1.257,1.381,1.709,0.063,3.026
				c-1.174,1.173-2.39,2.265-3.535,3.461c-2.28,2.381-4.599,4.761-6.866,7.155C309.81,91.066,307.205,93.921,305.977,95.23z
				 M290.977,77.826c0.806-0.747,1.535-1.414,2.253-2.093c0.586-0.554,0.695-1.019-0.01-1.673c-1.374-1.273-2.592-2.715-3.955-4
				c-2.553-2.407-1.627-2.856-4.535-0.032c-0.684,0.664-0.704,1.128-0.007,1.788c1.465,1.386,2.858,2.847,4.299,4.258
				C289.597,76.639,290.223,77.154,290.977,77.826z"/>
			<path id="XMLID_4_" style="fill:#F4C948;" d="M402.106,76.918c-2.25,1.998-4.346,3.82-6.389,5.698
				c-0.514,0.472-0.798,1.187-1.293,1.687c-5.904,5.958-11.781,11.946-17.776,17.812c-1.881,1.841-3.914,3.668-6.195,4.927
				c-3.72,2.054-7.772,1.947-11.577,0.09c-3.204-1.564-5.564-4.264-8.04-6.771c-3.961-4.011-7.948-7.996-11.934-11.982
				c-3.299-3.299-6.613-6.581-9.917-9.874c-1.609-1.603-1.587-2.161,0.037-3.787c5.261-5.27,10.5-10.563,15.77-15.824
				c3.728-3.721,7.395-7.51,11.27-11.072c3.705-3.406,9.236-4.03,13.818-2.126c3.35,1.392,5.479,4.194,7.949,6.602
				c2.681,2.614,5.309,5.284,7.919,7.969c1.517,1.561,3.034,3.053,4.586,4.577c2.471,2.426,4.929,4.93,7.405,7.351
				C399.181,73.601,400.483,75.15,402.106,76.918z M334.59,77.133c1.126,0.981,2.148,1.806,3.092,2.713
				c0.725,0.696,1.312,1.535,2.032,2.238c3.028,2.96,6.099,5.877,9.124,8.841c3.375,3.306,6.704,6.659,10.076,9.967
				c3.163,3.103,8.445,3.289,11.72,0.36c2.332-2.086,4.585-4.262,6.837-6.435c1.216-1.173,1.198-1.567-0.041-2.806
				c-5.824-5.822-11.655-11.637-17.495-17.443c-3.249-3.23-6.491-6.468-9.796-9.642c-1.437-1.38-1.601-1.306-3.03,0.081
				c-2.701,2.622-5.402,5.244-8.106,7.864C337.525,74.304,336.042,75.732,334.59,77.133z M365.878,50.126
				c-2.068-0.045-4.382,0.9-5.683,2.239c-2.424,2.496-4.762,5.075-7.215,7.541c-0.819,0.823-0.808,1.309,0.008,2.11
				c3.931,3.858,7.812,7.768,11.704,11.667c5.179,5.188,10.359,10.375,15.517,15.584c0.688,0.694,1.307,1.204,2.178,0.327
				c4.018-4.043,8.047-8.075,12.02-12.162c0.256-0.264,0.296-1.15,0.062-1.411c-1.552-1.729-3.181-3.391-4.831-5.028
				c-2.551-2.53-5.159-5.003-7.705-7.537c-3.511-3.494-6.923-7.089-10.505-10.507C369.783,51.379,367.764,50.281,365.878,50.126z"/>
			<path id="XMLID_3_" style="fill:#527EB4;" d="M325.291-0.763c1.855,2.031,3.635,4.041,5.488,5.982
				c0.753,0.789,6.228,6.293,8.206,8.257c2.732,2.713,5.62,5.268,8.354,7.979c1.911,1.895,3.652,3.985,5.548,5.865
				c3.702,3.67,4.034,7.367,3.696,11.948c-0.035,0.476-0.236,1.224-0.451,1.687c-0.405-0.205-0.899-0.322-1.203-0.628
				c-5.135-5.168-10.237-10.369-15.37-15.54c-1.728-1.741-3.543-3.396-5.278-5.13c-2.17-2.168-4.29-4.387-6.451-6.565
				c-0.675-0.681-1.368-1.364-2.147-1.912c-0.242-0.17-0.932-0.043-1.183,0.195c-1.542,1.466-3.009,3.01-4.516,4.514
				c-3.466,3.46-6.807,7.061-10.46,10.311c-2.23,1.985-4.063,4.183-5.538,6.711c-1.471,2.522-1.048,7.96,1.699,10.653
				c7.997,7.841,15.869,15.81,23.785,23.734c1.384,1.385,1.37,1.397-0.053,2.79c-0.968,0.947-1.923,1.908-2.903,2.844
				c-0.942,0.901-1.974,0.87-2.896-0.053c-8.654-8.663-17.27-17.363-25.979-25.97c-3.717-3.674-4.782-8.09-3.999-13.024
				c0.365-2.296,1.435-4.43,3.107-6.12c6.762-6.838,13.558-13.643,20.347-20.454c2.271-2.279,4.557-4.542,6.841-6.808
				C324.306,0.133,324.699-0.213,325.291-0.763z"/>
			<path id="XMLID_2_" style="fill:#527EB4;" d="M294.322,111.315c1.03-1.501,2.178-2.922,3.389-4.302
				c-1.781,5.132-0.495,9.568,2.781,13.588c1.168,1.433,2.445,2.777,3.608,4.214c0.919,1.135,1.568,0.587,2.328-0.18
				c5.606-5.656,11.225-11.299,16.849-16.937c4.05-4.06,8.103-8.118,12.186-12.144c0.493-0.486,1.145-0.9,1.799-1.103
				c0.422-0.131,1.147,0.018,1.456,0.325c4.439,4.389,8.725,8.938,13.262,13.222c4.703,4.442,5.317,12.421,1.878,17.435
				c-0.298,0.435-0.716,0.788-1.263,1.377c-0.135-0.606-0.285-0.886-0.237-1.127c0.963-4.795-1.303-8.403-4.412-11.595
				c-3.019-3.099-6.237-6.004-9.316-9.046c-0.885-0.875-1.507-0.862-2.372,0.019c-3.592,3.658-7.219,7.283-10.866,10.887
				c-2.301,2.274-4.687,4.463-6.984,6.742c-1.54,1.528-2.988,3.15-4.484,4.723c-0.333,0.35-0.667,0.709-1.048,1.002
				c-1.928,1.487-1.899,1.788-0.186,3.558c1.317,1.361,2.615,2.752,3.948,4.095c1.541,1.553,3.101,3.074,4.643,4.625
				c2.685,2.701,5.299,5.475,7.862,8.292c0.32,0.352,0.429,1.396,0.16,1.703c-1.452,1.656-3.054,3.182-4.751,4.901
				c-2.287-2.271-4.472-4.427-6.643-6.597c-7.118-7.112-14.27-14.191-21.329-21.362c-2.922-2.969-4.251-6.664-4.125-10.853
				C292.504,115.161,294.068,111.685,294.322,111.315z"/>
		</g>
		<g id="XMLID_1_">
			<path id="XMLID_15_" style="fill:#FFFFFF;" d="M-0.386,98.426V41.537h15.183c5.399,0,9.274,0.538,11.623,1.614
				c2.348,1.076,4.15,2.729,5.406,4.958s1.884,5.01,1.884,8.341c0,3.896-0.83,7.303-2.49,10.225s-4.325,5.177-7.995,6.765
				c-3.67,1.589-7.714,2.383-12.133,2.383H7.609v22.602H-0.386z M7.609,69.712h3.144c5.153,0,8.852-1.217,11.096-3.651
				s3.366-5.445,3.366-9.033c0-1.947-0.358-3.594-1.073-4.939c-0.715-1.345-1.862-2.434-3.439-3.267
				c-1.579-0.833-4.352-1.25-8.321-1.25H7.609V69.712z"/>
			<path id="XMLID_18_" style="fill:#FFFFFF;" d="M45.41,98.426V41.537H62.63c6.381,0,10.788,1.429,13.223,4.286
				c2.434,2.858,3.652,6.131,3.652,9.821c0,2.152-0.43,4.279-1.288,6.38c-0.859,2.102-2.083,3.972-3.671,5.612
				c-1.589,1.64-3.754,3.024-6.495,4.151l19.004,26.639h-9.915L60.939,74.364h-7.534v24.063H45.41z M53.405,68.329h2.614
				c5.971,0,10.001-1.243,12.089-3.729c2.088-2.485,3.132-5.214,3.132-8.188c0-1.768-0.391-3.312-1.172-4.632
				c-0.782-1.319-1.999-2.351-3.651-3.094c-1.653-0.743-4.299-1.115-7.938-1.115h-5.074V68.329z"/>
			<path id="XMLID_23_" style="fill:#FFFFFF;" d="M97.432,98.426V41.537h8.072v56.889H97.432z"/>
			<path id="XMLID_25_" style="fill:#FFFFFF;" d="M122.433,98.426V41.537h11.197l15.806,44.012l16.269-44.012h9.966v56.889h-7.534
				v-46.28l-15.74,42.475h-7.75l-15.255-42.59v46.396H122.433z"/>
			<path id="XMLID_27_" style="fill:#FFFFFF;" d="M185.833,98.426l22.598-56.889h7.967l22.25,56.889h-8.726l-6.209-15.76h-24.136
				l-6.248,15.76H185.833z M201.97,76.631h19.365l-9.652-24.497L201.97,76.631z"/>
			<path id="XMLID_30_" style="fill:#FFFFFF;" d="M466.22,95.505c-2.332,1.205-4.415,2.095-6.247,2.671s-3.734,1-5.708,1.269
				s-4.112,0.404-6.419,0.404c-9.584,0-16.6-2.832-21.045-8.495c-4.446-5.663-6.669-12.774-6.669-21.333
				c0-8.738,2.306-15.907,6.919-21.506c4.612-5.599,11.685-8.399,21.218-8.399c5.074,0,11.032,0.833,17.874,2.499v7.572
				c-5.74-1.973-9.693-3.139-11.858-3.498c-2.166-0.359-4.223-0.538-6.169-0.538c-6.817,0-11.757,2.313-14.818,6.938
				c-3.063,4.626-4.594,10.295-4.594,17.009c0,6.996,1.762,12.653,5.285,16.971c3.523,4.318,8.515,6.477,14.972,6.477
				c1.794,0,3.581-0.16,5.362-0.48c1.781-0.32,3.556-0.794,5.324-1.422c1.768-0.627,3.959-1.646,6.573-3.056V95.505z"/>
			<path id="XMLID_32_" style="fill:#FFFFFF;" d="M477.482,41.537h8.072v35.902c0,6.252,1.165,10.545,3.497,12.877
				c2.332,2.332,5.587,3.498,9.764,3.498c2.64,0,4.868-0.455,6.688-1.364c1.819-0.91,3.229-2.389,4.229-4.44
				c0.999-2.05,1.499-5.483,1.499-10.301V41.537h7.072v36.055c0,6.176-0.763,10.628-2.287,13.357
				c-1.524,2.729-3.678,4.895-6.457,6.497c-2.781,1.601-6.465,2.402-11.052,2.402c-4.895,0-8.854-0.833-11.877-2.499
				c-3.024-1.666-5.305-3.946-6.843-6.842c-1.537-2.896-2.306-7.277-2.306-13.146V41.537z"/>
			<path id="XMLID_34_" style="fill:#FFFFFF;" d="M575.232,95.505c-2.332,1.205-4.415,2.095-6.247,2.671s-3.734,1-5.708,1.269
				s-4.112,0.404-6.419,0.404c-9.584,0-16.6-2.832-21.045-8.495c-4.446-5.663-6.669-12.774-6.669-21.333
				c0-8.738,2.306-15.907,6.919-21.506c4.612-5.599,11.685-8.399,21.218-8.399c5.074,0,11.032,0.833,17.874,2.499v7.572
				c-5.74-1.973-9.693-3.139-11.858-3.498c-2.166-0.359-4.223-0.538-6.169-0.538c-6.817,0-11.757,2.313-14.818,6.938
				c-3.063,4.626-4.594,10.295-4.594,17.009c0,6.996,1.762,12.653,5.285,16.971c3.523,4.318,8.515,6.477,14.972,6.477
				c1.794,0,3.581-0.16,5.362-0.48c1.781-0.32,3.556-0.794,5.324-1.422c1.768-0.627,3.959-1.646,6.573-3.056V95.505z"/>
			<path id="XMLID_36_" style="fill:#FFFFFF;" d="M629.699,95.505c-2.332,1.205-4.415,2.095-6.247,2.671s-3.734,1-5.708,1.269
				s-4.112,0.404-6.419,0.404c-9.584,0-16.6-2.832-21.045-8.495c-4.446-5.663-6.669-12.774-6.669-21.333
				c0-8.738,2.306-15.907,6.919-21.506c4.612-5.599,11.685-8.399,21.218-8.399c5.074,0,11.032,0.833,17.874,2.499v7.572
				c-5.74-1.973-9.693-3.139-11.858-3.498c-2.166-0.359-4.223-0.538-6.169-0.538c-6.817,0-11.757,2.313-14.818,6.938
				c-3.063,4.626-4.594,10.295-4.594,17.009c0,6.996,1.762,12.653,5.285,16.971c3.523,4.318,8.515,6.477,14.972,6.477
				c1.794,0,3.581-0.16,5.362-0.48c1.781-0.32,3.556-0.794,5.324-1.422c1.768-0.627,3.959-1.646,6.573-3.056V95.505z"/>
			<path id="XMLID_38_" style="fill:#FFFFFF;" d="M641.385,98.426V41.537h8.071v56.889H641.385z"/>
			<path id="XMLID_40_" style="fill:#FFFFFF;" d="M664.102,98.426V41.537h7.953l28.525,43.896V41.537h6.957v56.889h-7.915
				l-28.563-43.881v43.881H664.102z"/>
			<path id="XMLID_42_" style="fill:#FFFFFF;" d="M715.571,98.426l22.598-56.889h7.967l22.25,56.889h-8.726l-6.209-15.76h-24.136
				l-6.248,15.76H715.571z M731.708,76.631h19.366l-9.652-24.497L731.708,76.631z"/>
		</g>
	</g>
</svg>
