<svg xmlns="http://www.w3.org/2000/svg" viewBox="0 0 220.85 46.53"><defs><style>.cls-1{fill:#fdb4ab;}</style></defs><title>Ресурс 1</title><g id="Слой_2" data-name="Слой 2"><g id="Layer_1" data-name="Layer 1"><path class="cls-1" d="M39,26.11C38,18.65,30.62,13.42,22.46,14.44a15.87,15.87,0,0,0-8.83,4.08L15,20a13.86,13.86,0,0,1,7.7-3.56,14.15,14.15,0,0,1,4.17.1,14.87,14.87,0,0,1-5.51,6.12A15.59,15.59,0,0,1,13,25.13a11.43,11.43,0,0,1-8.79-3.71,9.4,9.4,0,0,1-2.08-7.69C3.16,7.27,9.81,2,17,2c5.54,0,9.89,3.18,10.82,7.91h2l3.49-7H31.06L29,7.07C27.05,2.75,22.51,0,17,0,8.86,0,1.32,6,.15,13.42a11.39,11.39,0,0,0,2.54,9.31A13.46,13.46,0,0,0,13,27.15a17.57,17.57,0,0,0,9.44-2.8,16.85,16.85,0,0,0,6.31-7.1v0l.08-.21A11.56,11.56,0,0,1,37,26.36c.79,6.35-4.3,12.24-11.36,13.13a13.51,13.51,0,0,1-9.43-2.22l3.17-6.36H17.09L9.3,46.53h2.25l3.71-7.44a15.45,15.45,0,0,0,8.53,2.52,15.83,15.83,0,0,0,2.06-.13C34,40.46,39.89,33.56,39,26.11Z"/><path class="cls-1" d="M58.94,19.19v4.54a8.37,8.37,0,0,1-4.79,1.61,6.24,6.24,0,1,1,.13-12.47A7.36,7.36,0,0,1,59,14.6l-1.18,1.53a5.35,5.35,0,0,0-3.55-1.41,4.38,4.38,0,1,0,0,8.75,5.82,5.82,0,0,0,2.84-.84V19.19Z"/><path class="cls-1" d="M77.44,19.09a6.54,6.54,0,1,1-6.53-6.22A6.31,6.31,0,0,1,77.44,19.09Zm-11,0a4.42,4.42,0,0,0,4.44,4.38,4.37,4.37,0,1,0-4.44-4.38Z"/><path class="cls-1" d="M94.73,19.09a6.54,6.54,0,1,1-6.53-6.22A6.31,6.31,0,0,1,94.73,19.09Zm-11,0a4.41,4.41,0,0,0,8.82,0,4.41,4.41,0,0,0-8.82,0Z"/><path class="cls-1" d="M105.52,12.93a6.05,6.05,0,0,1,6.37,6.16,6.09,6.09,0,0,1-6.42,6.16h-5V12.93Zm-3,10.45h3a4.13,4.13,0,0,0,4.23-4.28,4.21,4.21,0,0,0-4.32-4.31h-2.94Z"/><path class="cls-1" d="M125.32,12.93c3.1,0,4.88,1.53,4.88,4.2s-1.78,4.4-4.88,4.4h-2.83v3.72h-2.08V12.93Zm-2.83,6.74h2.74c1.91,0,3-.81,3-2.48s-1.07-2.4-3-2.4h-2.74Z"/><path class="cls-1" d="M141.34,21.52h-3.48v3.72h-2.08V12.93h5c3.15,0,5,1.53,5,4.2a4,4,0,0,1-2.55,4L146,25.25h-2.36Zm-.56-1.85c1.9,0,3-.81,3-2.48s-1.09-2.4-3-2.4h-2.92v4.88Z"/><path class="cls-1" d="M164.07,19.09a6.54,6.54,0,1,1-6.53-6.22A6.31,6.31,0,0,1,164.07,19.09Zm-10.95,0a4.41,4.41,0,0,0,8.82,0,4.41,4.41,0,0,0-8.82,0Z"/><path class="cls-1" d="M175.09,21.45a3.55,3.55,0,0,1-3.84,3.89,4.59,4.59,0,0,1-3.63-1.78l1-1.59a3.77,3.77,0,0,0,2.62,1.36c1.11,0,1.76-.69,1.76-1.95V14.79h-4.26V12.93h6.36Z"/><path class="cls-1" d="M183.66,14.79v3.33h6V20h-6v3.4h6.93v1.87h-9V12.93h8.8v1.86Z"/><path class="cls-1" d="M206.79,14.77l-1.22,1.52a4.79,4.79,0,0,0-3.43-1.57,4.34,4.34,0,1,0,0,8.68,5.07,5.07,0,0,0,3.43-1.46l1.24,1.37a7,7,0,0,1-4.77,2,6.24,6.24,0,1,1,.07-12.47A6.8,6.8,0,0,1,206.79,14.77Z"/><path class="cls-1" d="M217,14.79V25.25h-2.08V14.79H211V12.93h9.87v1.86Z"/><path class="cls-1" d="M63.29,36.24V30.47h1v5.77Z"/><path class="cls-1" d="M71.49,36.24,68.41,32.1v4.14h-1V30.47h1l3.1,4.15V30.47h1v5.77Z"/><path class="cls-1" d="M77.73,31.34v4.9h-1v-4.9H74.94v-.87h4.63v.87Z"/><path class="cls-1" d="M83,31.34V32.9h2.82v.88H83v1.59h3.25v.87H82.05V30.47h4.12v.87Z"/><path class="cls-1" d="M91.72,34.49H90.09v1.74h-1V30.47h2.35c1.47,0,2.32.72,2.32,2a1.86,1.86,0,0,1-1.19,1.87l1.29,1.93h-1.1Zm-.26-.86c.89,0,1.4-.38,1.4-1.17s-.51-1.12-1.4-1.12H90.09v2.29Z"/><path class="cls-1" d="M96.73,36.24V30.47h1v5.77Z"/><path class="cls-1" d="M106.51,33.35a3.06,3.06,0,1,1-3.06-2.91A3,3,0,0,1,106.51,33.35Zm-5.13,0a2.07,2.07,0,0,0,2.08,2.06,2,2,0,1,0-2.08-2.06Z"/><path class="cls-1" d="M111.81,34.49h-1.63v1.74h-1V30.47h2.35c1.47,0,2.32.72,2.32,2a1.86,1.86,0,0,1-1.19,1.87L114,36.24h-1.1Zm-.26-.86c.89,0,1.4-.38,1.4-1.17s-.51-1.12-1.4-1.12h-1.37v2.29Z"/><path class="cls-1" d="M123,30.47a2.89,2.89,0,1,1,0,5.77H120.6V30.47Zm-1.4,4.9H123a1.94,1.94,0,0,0,2-2,2,2,0,0,0-2-2h-1.38Z"/><path class="cls-1" d="M129.62,31.34V32.9h2.82v.88h-2.82v1.59h3.25v.87h-4.23V30.47h4.13v.87Z"/><path class="cls-1" d="M139.63,31l-.41.86a3.45,3.45,0,0,0-1.69-.54c-.57,0-.94.22-.94.6,0,1.27,3.12.59,3.11,2.67,0,1-.91,1.67-2.18,1.67a3.59,3.59,0,0,1-2.36-.92l.42-.84a3.09,3.09,0,0,0,2,.84c.68,0,1.08-.26,1.08-.7,0-1.29-3.12-.57-3.12-2.63,0-1,.85-1.6,2.1-1.6A3.82,3.82,0,0,1,139.63,31Z"/><path class="cls-1" d="M142.49,36.24V30.47h1v5.77Z"/><path class="cls-1" d="M151.43,33.4v2.13a3.86,3.86,0,0,1-2.24.75,2.92,2.92,0,1,1,.06-5.84,3.51,3.51,0,0,1,2.22.81l-.56.72a2.5,2.5,0,0,0-1.66-.66,2.05,2.05,0,1,0,0,4.1,2.67,2.67,0,0,0,1.33-.4V33.4Z"/><path class="cls-1" d="M158.51,36.24l-3.08-4.14v4.14h-1V30.47h1l3.09,4.15V30.47h1v5.77Z"/><path class="cls-1" d="M170.16,31l-.41.86a3.42,3.42,0,0,0-1.69-.54c-.57,0-.94.22-.94.6,0,1.27,3.12.59,3.11,2.67,0,1-.91,1.67-2.18,1.67a3.61,3.61,0,0,1-2.36-.92l.43-.84a3,3,0,0,0,1.95.84c.68,0,1.08-.26,1.08-.7,0-1.29-3.12-.57-3.12-2.63,0-1,.85-1.6,2.11-1.6A3.81,3.81,0,0,1,170.16,31Z"/><path class="cls-1" d="M175.13,31.34v4.9h-1v-4.9h-1.82v-.87H177v.87Z"/><path class="cls-1" d="M184.36,33.85a2.52,2.52,0,0,1-5,0V30.47h1v3.38a1.44,1.44,0,0,0,1.55,1.56,1.42,1.42,0,0,0,1.52-1.56V30.47h1Z"/><path class="cls-1" d="M189.77,30.47a2.89,2.89,0,1,1,0,5.77H187.4V30.47Zm-1.39,4.9h1.42a1.94,1.94,0,0,0,2-2,2,2,0,0,0-2-2h-1.37Z"/><path class="cls-1" d="M195.45,36.24V30.47h1v5.77Z"/><path class="cls-1" d="M205.23,33.35a3.06,3.06,0,1,1-3.06-2.91A3,3,0,0,1,205.23,33.35Zm-5.13,0a2.07,2.07,0,0,0,4.14,0,2.07,2.07,0,0,0-4.14,0Z"/></g></g></svg>